#!OML:ASF H:\Terrain\Patient Classification 1\Terrain2\Thursday\justin.ASF
:FULLY-SPECIFIED
:DEGREES
1705
root -11.3853 17.4378 9.62578 -2.28046 -63.931 -359.374
lowerback 7.50811 0.25969 -2.72562
upperback 4.13643 0.101408 2.00793
thorax 0.0581804 -0.0494423 3.59863
lowerneck -11.138 2.50584 -7.84274
upperneck 41.9241 4.37314 0.595643
head 16.9592 0.146558 2.26351
rclavicle 4.16454e-014 -1.47101e-014
rhumerus -30.6693 -6.67959 -80.9265
rradius 31.8253
rwrist -10.1029
rhand -22.1971 14.4322
rfingers 7.12502
rthumb 4.21848 -15.5057
lclavicle 4.16454e-014 -1.47101e-014
lhumerus -35.7023 -0.65547 82.8866
lradius 60.0409
lwrist 4.37851
lhand -15.9289 15.2399
lfingers 7.12502
lthumb 10.2688 44.9692
rfemur -15.5291 15.2818 12.1049
rtibia 34.8748
rfoot -16.872 19.2994
rtoes 4.17717
lfemur -8.3766 -7.60515 -19.1042
ltibia 27.593
lfoot -9.28193 -23.9309
ltoes 26.6916
1706
root -11.4307 17.4283 9.60881 -2.03294 -63.1375 -359.562
lowerback 7.45476 0.169617 -2.27407
upperback 4.16729 0.0108057 1.93454
thorax 0.125192 -0.0882178 3.27334
lowerneck -11.5673 2.57077 -7.7485
upperneck 42.2304 4.49439 0.66832
head 17.2347 0.203962 2.31772
rclavicle 2.98177e-016 -1.19271e-014
rhumerus -30.7012 -7.37861 -80.7214
rradius 31.4238
rwrist -9.38375
rhand -22.5027 13.4875
rfingers 7.12502
rthumb 3.92338 -16.4561
lclavicle 2.98177e-016 -1.19271e-014
lhumerus -35.4649 -0.0719347 82.5096
lradius 59.2189
lwrist 4.54959
lhand -16.6772 15.9201
lfingers 7.12502
lthumb 9.5468 45.6838
rfemur -14.9235 15.1313 12.3843
rtibia 34.4116
rfoot -17.3858 18.8168
rtoes 5.21319
lfemur -8.54687 -8.33664 -18.8997
ltibia 27.7954
lfoot -9.0728 -24.1773
ltoes 28.4719
1707
root -11.4836 17.4222 9.59091 -1.32917 -62.5425 -360.176
lowerback 7.35178 -0.146814 -2.1564
upperback 4.05283 -0.397513 2.31682
thorax 0.096778 -0.292674 3.63246
lowerneck -11.8502 2.83665 -8.15581
upperneck 42.5224 5.16346 0.428064
head 17.4453 0.353514 2.40192
rclavicle -4.01545e-014 -3.97569e-016
rhumerus -30.5463 -6.49074 -80.4471
rradius 30.683
rwrist -9.15251
rhand -22.3338 13.7215
rfingers 7.12502
rthumb 4.08639 -16.2191
lclavicle -4.01545e-014 -3.97569e-016
lhumerus -35.9331 1.78376 82.3099
lradius 58.6431
lwrist 4.69974
lhand -17.7118 16.6851
lfingers 7.12502
lthumb 8.54845 46.4921
rfemur -14.4439 14.8826 12.9257
rtibia 34.0635
rfoot -18.1715 17.6645
rtoes 5.3234
lfemur -8.71139 -8.93735 -18.4485
ltibia 27.919
lfoot -9.14755 -24.2779
ltoes 28.4806
1708
root -11.5412 17.418 9.56593 -1.10423 -62.0813 -360.336
lowerback 7.24454 -0.383177 -2.28525
upperback 3.99475 -0.717197 2.7002
thorax 0.129834 -0.459347 4.12586
lowerneck -11.8881 3.14416 -8.71327
upperneck 42.4531 5.99388 0.00390545
head 17.3834 0.548252 2.44138
rclavicle -3.72721e-014 2.62396e-014
rhumerus -30.3067 -5.06765 -80.1368
rradius 29.9373
rwrist -9.68895
rhand -22.3777 14.5377
rfingers 7.12502
rthumb 4.04403 -15.4037
lclavicle -3.72721e-014 2.62396e-014
lhumerus -36.3314 3.63961 82.1581
lradius 57.9322
lwrist 4.85282
lhand -18.4719 17.2971
lfingers 7.12502
lthumb 7.81489 47.1327
rfemur -13.9572 14.6193 13.2842
rtibia 33.7364
rfoot -18.7263 16.4873
rtoes 6.32183
lfemur -8.72955 -9.3903 -18.2172
ltibia 28.0083
lfoot -9.42426 -24.3317
ltoes 27.5774
1709
root -11.5931 17.4213 9.5358 -0.769383 -61.5826 -360.659
lowerback 7.15127 -0.293694 -1.86261
upperback 4.03204 -0.572579 2.72677
thorax 0.201872 -0.38239 3.90237
lowerneck -11.8169 3.26955 -8.64044
upperneck 42.2475 6.30671 -0.292813
head 17.2532 0.672493 2.34201
rclavicle 5.81445e-014 3.57812e-014
rhumerus -30.3766 -4.67464 -79.957
rradius 29.6623
rwrist -10.4089
rhand -22.853 14.2122
rfingers 7.12502
rthumb 3.58507 -15.7374
lclavicle 5.81445e-014 3.57812e-014
lhumerus -36.2884 4.33401 81.8977
lradius 57.1628
lwrist 4.97976
lhand -19.0192 17.7065
lfingers 7.12502
lthumb 7.28665 47.561
rfemur -13.5148 14.3591 13.7697
rtibia 33.4042
rfoot -18.9406 15.4058
rtoes 6.26703
lfemur -8.74564 -9.70044 -17.8608
ltibia 28.0539
lfoot -9.55949 -24.574
ltoes 26.8354
1710
root -11.643 17.4293 9.51126 -0.394099 -60.9038 -361.161
lowerback 7.18813 -0.116412 -1.21171
upperback 4.09088 -0.299491 2.61361
thorax 0.213797 -0.234713 3.39756
lowerneck -11.7739 3.2237 -8.05919
upperneck 42.244 6.18219 -0.518232
head 17.2803 0.694227 2.12083
rclavicle 7.38485e-014 -1.98785e-014
rhumerus -30.2595 -6.00096 -79.7923
rradius 28.8079
rwrist -9.97468
rhand -24.2502 12.3714
rfingers 7.12502
rthumb 2.23573 -17.5967
lclavicle 7.38485e-014 -1.98785e-014
lhumerus -36.2076 4.62841 81.5123
lradius 56.4901
lwrist 4.94701
lhand -19.2023 18.1038
lfingers 7.12502
lthumb 7.10985 47.9644
rfemur -13.0049 13.8358 14.391
rtibia 33.087
rfoot -18.6592 14.7569
rtoes 6.93572
lfemur -8.65449 -10.3124 -17.4545
ltibia 28.0684
lfoot -9.69716 -24.6938
ltoes 26.6069
1711
root -11.6934 17.4353 9.4828 0.0812247 -60.3365 -361.738
lowerback 7.30217 0.0450085 -0.75675
upperback 4.08844 -0.0571745 2.65383
thorax 0.130526 -0.105773 3.16593
lowerneck -11.9429 3.14151 -7.79244
upperneck 42.4924 6.05919 -0.591045
head 17.489 0.664015 2.03201
rclavicle -3.49861e-014 3.49861e-014
rhumerus -29.9402 -7.84845 -79.4732
rradius 27.54
rwrist -8.75337
rhand -23.4321 14.7588
rfingers 7.12502
rthumb 3.02584 -15.1995
lclavicle -3.49861e-014 3.49861e-014
lhumerus -36.2137 5.14133 81.1605
lradius 55.7435
lwrist 4.88228
lhand -19.4994 18.5288
lfingers 7.12502
lthumb 6.82307 48.3989
rfemur -12.637 13.5091 15.0461
rtibia 32.8376
rfoot -18.1373 14.2339
rtoes 8.9134
lfemur -8.57825 -10.95 -16.9937
ltibia 28.0784
lfoot -9.91972 -24.6461
ltoes 26.5518
1712
root -11.7344 17.4412 9.44768 1.02413 -59.8565 -362.638
lowerback 7.34643 0.303126 0.0233241
upperback 4.07281 0.334617 2.66229
thorax 0.069651 0.103033 2.70632
lowerneck -12.2326 2.96737 -7.63106
upperneck 42.686 5.78526 -0.504259
head 17.6919 0.58468 2.0125
rclavicle -6.43068e-014 -1.98785e-014
rhumerus -29.8509 -9.40271 -79.05
rradius 26.7347
rwrist -7.73681
rhand -23.3051 15.8118
rfingers 7.12502
rthumb 3.1485 -14.1447
lclavicle -6.43068e-014 -1.98785e-014
lhumerus -36.126 5.28604 80.8813
lradius 55.0585
lwrist 4.85214
lhand -20.1752 19.0651
lfingers 7.12502
lthumb 6.1707 48.9552
rfemur -12.5474 13.5424 15.8137
rtibia 32.7132
rfoot -17.8072 13.5463
rtoes 9.56905
lfemur -8.75125 -11.1198 -16.2431
ltibia 28.0659
lfoot -10.0633 -24.8924
ltoes 25.8664
1713
root -11.7746 17.4487 9.41412 1.73923 -59.5168 -363.194
lowerback 7.30272 0.585846 0.607999
upperback 4.038 0.747496 2.65211
thorax 0.045884 0.319459 2.33661
lowerneck -12.3331 2.89636 -7.39368
upperneck 42.5636 5.66568 -0.529071
head 17.6599 0.591482 1.94491
rclavicle 2.69353e-014 -1.59028e-014
rhumerus -29.8535 -10.3163 -78.6521
rradius 26.0516
rwrist -7.18655
rhand -23.1552 16.9454
rfingers 7.12502
rthumb 3.29317 -13.0089
lclavicle 2.69353e-014 -1.59028e-014
lhumerus -36.0991 5.58973 80.6202
lradius 54.3595
lwrist 4.76818
lhand -20.7841 19.8131
lfingers 7.12502
lthumb 5.58283 49.7196
rfemur -12.6505 13.634 16.3338
rtibia 32.7393
rfoot -17.692 13.0791
rtoes 9.66941
lfemur -8.97785 -10.9927 -15.6713
ltibia 27.9901
lfoot -9.89785 -25.2776
ltoes 25.8511
